<mxfile host="app.diagrams.net" modified="2023-10-04T16:31:25.633Z" agent="Mozilla/5.0 (Windows NT 10.0; Win64; x64) AppleWebKit/537.36 (KHTML, like Gecko) Chrome/117.0.0.0 Safari/537.36" version="22.0.2" etag="xuTsWODlXc8557RFccEv" type="github">
  <diagram name="Seite-1" id="ZX7wY010Ebh0crTtpjeo">
    <mxGraphModel>
      <root>
        <mxCell id="0" />
        <mxCell id="1" parent="0" />
      </root>
    </mxGraphModel>
  </diagram>
</mxfile>
